<svg width="54" height="52" viewBox="0 0 54 52" fill="none" xmlns="http://www.w3.org/2000/svg">
<g filter="url(#filter0_dd_2776_242)">
<rect x="2" y="2" width="50" height="48" rx="12" fill="#65558F"/>
<path d="M12.2547 27.0761H13.2694C13.2369 27.4631 13.1287 27.8081 12.9447 28.1111C12.7607 28.4115 12.5023 28.6482 12.1695 28.8214C11.8366 28.9946 11.4321 29.0812 10.9559 29.0812C10.5906 29.0812 10.2618 29.0162 9.96958 28.8864C9.67734 28.7538 9.42705 28.5671 9.21869 28.3262C9.01034 28.0827 8.85069 27.7891 8.73975 27.4455C8.63152 27.1018 8.5774 26.7176 8.5774 26.2928V25.8016C8.5774 25.3768 8.63287 24.9926 8.74381 24.6489C8.85746 24.3053 9.01981 24.0117 9.23087 23.7682C9.44193 23.5219 9.69493 23.3339 9.98987 23.204C10.2875 23.0741 10.6217 23.0092 10.9924 23.0092C11.4632 23.0092 11.861 23.0957 12.1857 23.2689C12.5104 23.4421 12.7621 23.6816 12.9406 23.9873C13.1219 24.2931 13.2329 24.6435 13.2735 25.0386H12.2588C12.2317 24.7842 12.1722 24.5664 12.0802 24.3851C11.9909 24.2038 11.8583 24.0658 11.6824 23.9711C11.5065 23.8737 11.2765 23.825 10.9924 23.825C10.7597 23.825 10.5568 23.8683 10.3836 23.9549C10.2104 24.0415 10.0656 24.1686 9.94929 24.3364C9.83293 24.5042 9.74499 24.7112 9.68546 24.9574C9.62864 25.2009 9.60023 25.4796 9.60023 25.7935V26.2928C9.60023 26.5904 9.62593 26.861 9.67734 27.1045C9.73146 27.3453 9.81264 27.5523 9.92087 27.7255C10.0318 27.8987 10.1725 28.0326 10.343 28.1273C10.5135 28.2221 10.7178 28.2694 10.9559 28.2694C11.2454 28.2694 11.4795 28.2234 11.6581 28.1314C11.8394 28.0394 11.976 27.9055 12.068 27.7296C12.1627 27.551 12.2249 27.3332 12.2547 27.0761ZM18.1588 25.5581V26.3658L15.0213 26.3658V25.5581L18.1588 25.5581ZM15.273 23.0903L15.273 29H14.2542L14.2542 23.0903L15.273 23.0903ZM18.9422 23.0903V29H17.9275V23.0903H18.9422ZM22.5896 23.8777L20.824 29H19.7565L21.9807 23.0903H22.6626L22.5896 23.8777ZM24.067 29L22.2973 23.8777L22.2202 23.0903H22.9061L25.1385 29L24.067 29ZM23.9817 26.8082L23.9817 27.6159H20.7671V26.8082H23.9817ZM27.7793 23.0903L27.7793 29H26.7686L26.7686 23.0903H27.7793ZM29.6342 23.0903V23.9021L24.93 23.9021V23.0903L29.6342 23.0903ZM32.689 26.3293H31.1832L31.175 25.5865H32.4901C32.712 25.5865 32.9 25.554 33.0543 25.4891C33.2112 25.4215 33.3303 25.3254 33.4115 25.2009C33.4926 25.0738 33.5332 24.9209 33.5332 24.7423C33.5332 24.5447 33.4953 24.3837 33.4196 24.2593C33.3438 24.1348 33.2275 24.0442 33.0705 23.9873C32.9163 23.9305 32.7187 23.9021 32.4779 23.9021H31.4916L31.4916 29H30.4729L30.4729 23.0903H32.4779C32.8026 23.0903 33.0922 23.1214 33.3465 23.1837C33.6036 23.2459 33.8214 23.3433 34 23.4759C34.1813 23.6058 34.3179 23.7709 34.4099 23.9711C34.5046 24.1713 34.552 24.4095 34.552 24.6855C34.552 24.929 34.4938 25.1522 34.3775 25.3552C34.2611 25.5554 34.0893 25.7191 33.862 25.8463C33.6347 25.9735 33.3519 26.0492 33.0137 26.0736L32.689 26.3293ZM32.6443 29H30.8625L31.3212 28.1923H32.6443C32.8743 28.1923 33.0665 28.1544 33.2207 28.0786C33.3749 28.0002 33.4899 27.8933 33.5657 27.758C33.6442 27.62 33.6834 27.459 33.6834 27.275C33.6834 27.0829 33.6496 26.9165 33.5819 26.7758C33.5143 26.6323 33.4074 26.5228 33.2613 26.447C33.1152 26.3685 32.9244 26.3293 32.689 26.3293H31.5444L31.5525 25.5865H33.0421L33.2735 25.8666C33.5982 25.8774 33.8647 25.9491 34.073 26.0817C34.2841 26.2143 34.441 26.3861 34.5439 26.5972C34.6467 26.8082 34.6981 27.0355 34.6981 27.2791C34.6981 27.6552 34.6156 27.9704 34.4505 28.2248C34.2882 28.4791 34.0541 28.6726 33.7483 28.8052C33.4426 28.9351 33.0746 29 32.6443 29ZM40.4967 25.8828V26.2075C40.4967 26.654 40.4385 27.0545 40.3221 27.4089C40.2058 27.7634 40.0394 28.0651 39.8229 28.3141C39.6091 28.563 39.3521 28.7538 39.0517 28.8864C38.7514 29.0162 38.4186 29.0812 38.0533 29.0812C37.6907 29.0812 37.3592 29.0162 37.0588 28.8864C36.7612 28.7538 36.5028 28.563 36.2836 28.3141C36.0644 28.0651 35.894 27.7634 35.7722 27.4089C35.6531 27.0545 35.5936 26.654 35.5936 26.2075V25.8828C35.5936 25.4363 35.6531 25.0372 35.7722 24.6855C35.8913 24.331 36.059 24.0293 36.2755 23.7803C36.4947 23.5287 36.7531 23.3379 37.0507 23.208C37.3511 23.0754 37.6826 23.0092 38.0451 23.0092C38.4104 23.0092 38.7433 23.0754 39.0436 23.208C39.344 23.3379 39.6024 23.5287 39.8189 23.7803C40.0353 24.0293 40.2017 24.331 40.3181 24.6855C40.4371 25.0372 40.4967 25.4363 40.4967 25.8828ZM39.4779 26.2075V25.8747C39.4779 25.5446 39.4454 25.2537 39.3805 25.002C39.3183 24.7477 39.2249 24.5353 39.1004 24.3648C38.9787 24.1916 38.8285 24.0617 38.6499 23.9752C38.4713 23.8859 38.2697 23.8412 38.0451 23.8412C37.8206 23.8412 37.6203 23.8859 37.4444 23.9752C37.2686 24.0617 37.1184 24.1916 36.9939 24.3648C36.8721 24.5353 36.7788 24.7477 36.7138 25.002C36.6489 25.2537 36.6164 25.5446 36.6164 25.8747V26.2075C36.6164 26.5376 36.6489 26.8299 36.7138 27.0842C36.7788 27.3386 36.8735 27.5537 36.998 27.7296C37.1251 27.9028 37.2767 28.034 37.4526 28.1233C37.6284 28.2099 37.8287 28.2532 38.0533 28.2532C38.2806 28.2532 38.4821 28.2099 38.658 28.1233C38.8339 28.034 38.9827 27.9028 39.1045 27.7296C39.2263 27.5537 39.3183 27.3386 39.3805 27.0842C39.4454 26.8299 39.4779 26.5376 39.4779 26.2075ZM43.8031 23.0903V29H42.7925V23.0903H43.8031ZM45.658 23.0903V23.9021L40.9538 23.9021V23.0903L45.658 23.0903Z" fill="white"/>
</g>
<defs>
<filter id="filter0_dd_2776_242" x="0" y="0" width="54" height="52" filterUnits="userSpaceOnUse" color-interpolation-filters="sRGB">
<feFlood flood-opacity="0" result="BackgroundImageFix"/>
<feColorMatrix in="SourceAlpha" type="matrix" values="0 0 0 0 0 0 0 0 0 0 0 0 0 0 0 0 0 0 127 0" result="hardAlpha"/>
<feOffset/>
<feGaussianBlur stdDeviation="0.5"/>
<feColorMatrix type="matrix" values="0 0 0 0 0.0901961 0 0 0 0 0.101961 0 0 0 0 0.121569 0 0 0 0.07 0"/>
<feBlend mode="normal" in2="BackgroundImageFix" result="effect1_dropShadow_2776_242"/>
<feColorMatrix in="SourceAlpha" type="matrix" values="0 0 0 0 0 0 0 0 0 0 0 0 0 0 0 0 0 0 127 0" result="hardAlpha"/>
<feOffset/>
<feGaussianBlur stdDeviation="1"/>
<feColorMatrix type="matrix" values="0 0 0 0 0.0901961 0 0 0 0 0.101961 0 0 0 0 0.121569 0 0 0 0.12 0"/>
<feBlend mode="normal" in2="effect1_dropShadow_2776_242" result="effect2_dropShadow_2776_242"/>
<feBlend mode="normal" in="SourceGraphic" in2="effect2_dropShadow_2776_242" result="shape"/>
</filter>
</defs>
</svg>
